<svg width="197" height="25" viewBox="0 0 197 25" fill="none" xmlns="http://www.w3.org/2000/svg">
<path d="M17.3672 0V3.60825H10.656V19.5876H6.71122V3.60825H0V0H17.3672Z" fill="#76CEFF"/>
<path d="M25.7055 3.91753C26.1153 3.91753 26.5764 3.96907 26.9863 4.02062L26.935 7.52577C26.1666 7.42268 25.3981 7.37113 24.6809 7.37113C22.3243 7.37113 20.6849 8.65979 20.6849 11.0825V19.5876H16.9963V4.12371H20.275L20.48 6.54639C21.607 4.89691 23.4513 3.91753 25.7055 3.91753Z" fill="#76CEFF"/>
<path d="M35.3246 19.8454C30.5089 19.8454 27.3838 16.701 27.3838 11.8557C27.3838 7.06186 30.6113 3.86598 35.3246 3.86598C40.1402 3.86598 43.2653 7.01031 43.2653 11.8557C43.2653 16.6495 40.0378 19.8454 35.3246 19.8454ZM35.3246 16.7526C37.8861 16.7526 39.4742 14.8969 39.4742 11.8557C39.4742 8.81443 37.8861 6.95876 35.3246 6.95876C32.763 6.95876 31.1749 8.81443 31.1749 11.8557C31.1749 14.8969 32.763 16.7526 35.3246 16.7526Z" fill="#76CEFF"/>
<path d="M56.573 4.12371H60.4153L54.9336 19.7938C53.8065 23.0412 51.911 25 49.1958 25C45.6609 25 44.4313 22.6289 44.3289 20.2577L47.7101 19.6392C47.7613 20.8763 48.1199 21.7526 49.2982 21.7526C49.9642 21.7526 50.4765 21.3402 50.9888 20.4639L43.8166 4.12371H47.8638L52.7819 16.3402L56.573 4.12371Z" fill="#76CEFF"/>
<path d="M74.4402 16.3918H75.055V19.5876C74.7988 19.6392 74.389 19.6907 73.723 19.6907C71.8274 19.6907 70.854 18.9691 70.5979 17.3196C69.4708 18.866 67.4728 19.8454 65.2187 19.8454C62.2473 19.8454 60.1981 18.0412 60.1981 15.3093C60.1981 11.3918 63.8867 10.6186 66.8068 10.2577C68.8048 10 70.0856 9.74227 70.0856 8.71134C70.0856 7.62887 68.9585 6.90722 67.1142 6.90722C65.4748 6.90722 63.9891 7.57732 62.7596 8.81443L60.5567 6.49485C62.3498 4.79381 64.6039 3.86598 67.3191 3.86598C71.2127 3.86598 73.518 5.82474 73.518 9.02062V15.4639C73.518 16.0825 73.8254 16.3918 74.4402 16.3918ZM65.9871 16.9072C68.19 16.9072 69.9831 15.4124 69.9831 13.6082V12.0103C69.3684 12.3711 68.4974 12.5258 67.2167 12.732C65.4748 13.0412 63.7842 13.299 63.7842 15C63.7842 16.1856 64.6039 16.9072 65.9871 16.9072Z" fill="#76CEFF"/>
<path d="M86.4159 3.86598C89.6946 3.86598 92 6.23711 92 9.79381V19.5876H88.3114V10.6701C88.3114 8.29897 87.1843 6.95876 85.2888 6.95876C83.1371 6.95876 81.3953 8.50515 81.3953 10.7216V19.5876H77.7066V4.12371H80.9854L81.1903 6.39175C82.3174 4.84536 84.2129 3.86598 86.4159 3.86598Z" fill="#76CEFF"/>
<path d="M113.229 21C110.04 21 107.057 19.963 105 18.1481L107.212 15.1407C108.857 16.7481 111.017 17.5778 113.383 17.5778C115.749 17.5778 117.189 16.7481 117.189 15.2963C117.189 13.9481 115.852 13.5333 113.126 12.7556C109.68 11.7704 105.771 10.5778 105.771 6.53333C105.771 2.95556 108.754 0.777778 113.435 0.777778C116.212 0.777778 118.578 1.55556 120.738 3.16296L118.578 6.11852C117.138 4.92593 115.235 4.25185 113.229 4.25185C111.069 4.25185 109.68 5.08148 109.68 6.32593C109.68 7.62222 111.12 8.24444 114 9.02222C117.703 10.0074 121.201 11.2519 121.201 14.9852C121.201 18.7704 118.218 21 113.229 21Z" fill="white"/>
<path d="M130.6 21C125.92 21 122.731 17.7852 122.731 12.963C122.731 8.14074 125.92 4.92593 130.6 4.92593C134.046 4.92593 136.772 6.63704 137.646 9.59259L134.098 10.6815C133.532 9.02222 132.298 8.03704 130.549 8.03704C128.08 8.03704 126.537 9.95555 126.537 12.963C126.537 15.9704 128.08 17.8889 130.549 17.8889C132.298 17.8889 133.532 16.9037 134.149 15.2444L137.646 16.3333C136.772 19.2889 134.046 21 130.6 21Z" fill="white"/>
<path d="M148.743 4.92593C152.035 4.92593 154.298 7.31111 154.298 10.8889V20.7407H150.595V11.7704C150.595 9.38519 149.463 8.03704 147.612 8.03704C145.452 8.03704 143.703 9.59259 143.703 11.8222V20.7407H140V0H143.703V7.20741C144.886 5.80741 146.686 4.92593 148.743 4.92593Z" fill="white"/>
<path d="M164.829 21C159.994 21 156.857 17.837 156.857 12.963C156.857 8.14074 160.097 4.92593 164.829 4.92593C169.663 4.92593 172.801 8.08889 172.801 12.963C172.801 17.7852 169.56 21 164.829 21ZM164.829 17.8889C167.4 17.8889 168.995 16.0222 168.995 12.963C168.995 9.9037 167.4 8.03704 164.829 8.03704C162.257 8.03704 160.663 9.9037 160.663 12.963C160.663 16.0222 162.257 17.8889 164.829 17.8889Z" fill="white"/>
<path d="M182.509 21C177.674 21 174.537 17.837 174.537 12.963C174.537 8.14074 177.777 4.92593 182.509 4.92593C187.343 4.92593 190.481 8.08889 190.481 12.963C190.481 17.7852 187.24 21 182.509 21ZM182.509 17.8889C185.08 17.8889 186.675 16.0222 186.675 12.963C186.675 9.9037 185.08 8.03704 182.509 8.03704C179.937 8.03704 178.343 9.9037 178.343 12.963C178.343 16.0222 179.937 17.8889 182.509 17.8889Z" fill="white"/>
<path d="M193.297 20.7407V0H197V20.7407H193.297Z" fill="white"/>
</svg>
