<?xml version="1.0" standalone="no"?>
<!DOCTYPE svg PUBLIC "-//W3C//DTD SVG 20010904//EN"
 "http://www.w3.org/TR/2001/REC-SVG-20010904/DTD/svg10.dtd">
<svg version="1.0" xmlns="http://www.w3.org/2000/svg"
 width="512.000000pt" height="512.000000pt" viewBox="0 0 512.000000 512.000000"
 preserveAspectRatio="xMidYMid meet">
<metadata>
Created by potrace 1.14, written by Peter Selinger 2001-2017
</metadata>
<g transform="translate(0.000000,512.000000) scale(0.100000,-0.100000)"
fill="#000000" stroke="none">
<path d="M0 2560 l0 -2560 2560 0 2560 0 0 2560 0 2560 -2560 0 -2560 0 0
-2560z m2373 1417 c124 -63 117 -32 117 -547 0 -236 -2 -430 -5 -430 -18 0
-835 417 -857 438 -15 14 -32 39 -37 56 -5 17 -12 157 -15 311 -4 154 -9 349
-13 434 l-6 154 369 -188 c203 -103 404 -206 447 -228z m1187 296 c0 -60 -5
-258 -10 -442 -10 -313 -12 -336 -31 -368 -19 -30 -76 -62 -450 -249 -236
-118 -431 -214 -434 -214 -9 0 -5 824 5 864 5 22 20 50 34 64 21 21 856 450
879 452 4 0 7 -48 7 -107z m-1582 -1258 c224 -112 422 -213 440 -224 18 -12
41 -35 52 -53 19 -32 20 -52 20 -471 l0 -437 -112 56 c-62 31 -258 130 -435
221 -314 161 -323 166 -342 206 -17 37 -20 73 -25 327 -4 157 -9 351 -13 433
-3 81 -3 147 1 147 4 0 190 -92 414 -205z m1578 -102 c-11 -505 -15 -579 -40
-616 -17 -26 -96 -70 -441 -244 -231 -117 -426 -212 -433 -212 -10 -1 -12 83
-10 432 3 413 4 434 23 467 18 31 68 59 455 257 239 122 439 222 444 222 5 1
6 -128 2 -306z m-1546 -1041 c373 -186 438 -222 458 -251 22 -34 22 -35 22
-459 l0 -424 -429 3 c-412 4 -430 5 -451 24 -50 44 -50 42 -50 705 0 341 3
620 8 619 4 0 203 -98 442 -217z m1541 -500 c-11 -565 -11 -562 -61 -607 -21
-19 -39 -20 -441 -23 l-419 -4 0 404 c0 407 4 456 38 498 9 12 213 118 452
235 l435 214 3 -92 c2 -51 -1 -332 -7 -625z"/>
</g>
</svg>
